<?xml version="1.0" encoding="UTF-8"?>
<!DOCTYPE svg PUBLIC "-//W3C//DTD SVG 1.1//EN" "http://www.w3.org/Graphics/SVG/1.1/DTD/svg11.dtd">
<!-- Creator: CorelDRAW -->
<svg xmlns="http://www.w3.org/2000/svg" xml:space="preserve" width="297mm" height="210mm" version="1.1" style="shape-rendering:geometricPrecision; text-rendering:geometricPrecision; image-rendering:optimizeQuality; fill-rule:evenodd; clip-rule:evenodd"
viewBox="0 0 29700 21000"
 xmlns:xlink="http://www.w3.org/1999/xlink">
 <defs>
  <style type="text/css">
   <![CDATA[
    .fil0 {fill:#F37440;fill-rule:nonzero}
    .fil1 {fill:#007388;fill-rule:nonzero}
    .fil2 {fill:#25465B;fill-rule:nonzero}
   ]]>
  </style>
 </defs>
 <g id="Camada_x0020_1">
  <metadata id="CorelCorpID_0Corel-Layer"/>
  <g id="_105553379736960">
   <path class="fil0" d="M8182.58 9448.32l1044.74 -511.21c164.86,-80.67 233.12,-279.74 152.43,-444.6 -80.67,-164.88 -279.72,-233.1 -444.59,-152.44l-1044.71 511.23c-164.87,80.68 -233.13,279.72 -152.45,444.58 80.68,164.86 279.73,233.12 444.58,152.44zm-2401.64 -1229.31l0 0c183.55,0 332.33,-148.78 332.33,-332.34l0 -1163.11c0,-183.52 -148.78,-332.33 -332.33,-332.33 -183.56,0 -332.34,148.81 -332.34,332.33l0 1163.11c0,183.56 148.78,332.34 332.34,332.34zm3402.7 3897.98l-1044.71 -511.22c-164.88,-80.67 -363.94,-12.42 -444.61,152.44 -80.65,164.86 -12.43,363.9 152.44,444.58l1044.75 511.24c164.87,80.67 363.9,12.39 444.57,-152.45 80.68,-164.86 12.43,-363.92 -152.44,-444.59zm-3394.78 678.26c-183.58,0 -332.34,148.81 -332.34,332.34l0 1163.11c0,183.55 148.76,332.33 332.34,332.33 183.55,0 332.31,-148.78 332.31,-332.33l0 -1163.11c0,-183.53 -148.76,-332.34 -332.31,-332.34zm-3436.6 -3871.74l1044.72 511.22c164.86,80.67 363.93,12.42 444.6,-152.45l0.02 0c80.65,-164.87 12.41,-363.92 -152.46,-444.58l-1044.75 -511.21c-164.85,-80.69 -363.88,-12.43 -444.58,152.42 -80.67,164.86 -12.4,363.93 152.45,444.6zm1080.87 2700.39l-1044.73 511.22c-164.87,80.67 -233.11,279.72 -152.44,444.59 80.67,164.85 279.7,233.1 444.57,152.45l1044.73 -511.24c164.87,-80.67 233.11,-279.71 152.44,-444.58 -80.67,-164.87 -279.7,-233.11 -444.57,-152.44zm2373.67 -2806.71c-8.51,-0.8 -17.14,-1.26 -25.86,-1.26 -8.72,0 -17.33,0.46 -25.85,1.26 -141.62,13.04 -252.55,132.11 -252.55,277.14l0 315.52 0 1089.43c0,153.75 124.64,278.4 278.4,278.4 153.77,0 278.42,-124.65 278.42,-278.4l0 -1089.43c490.2,124.41 853.96,569.36 853.96,1097.74 0,624.4 -507.96,1132.39 -1132.38,1132.39 -624.41,0 -1132.4,-507.99 -1132.4,-1132.39 0,-251.31 82.4,-483.72 221.47,-671.78 2.47,-2.53 23.77,-28.97 32.26,-39.4 30.31,-44.77 47.95,-98.75 47.95,-156.86 0,-154.83 -125.49,-280.34 -280.33,-280.34 -95.49,0 -179.75,47.77 -230.37,120.66 -218.92,285 -349.31,641.36 -349.31,1027.72 0,932.25 758.46,1690.73 1690.73,1690.73 932.29,0 1690.73,-758.48 1690.73,-1690.73 0,-923.65 -744.48,-1676.52 -1664.87,-1690.4z"/>
   <g>
    <path class="fil1" d="M24793.59 9394.36c79.39,-98.77 223.87,-114.49 322.64,-35.07 98.77,79.42 114.49,223.89 35.07,322.66l-776.29 966.72 0 836.38c0,127.05 -103.04,230.06 -230.09,230.06 -127.07,0 -230.08,-103.01 -230.08,-230.06l0 -836.35 -776.32 -966.75c-79.42,-98.77 -63.72,-243.24 35.07,-322.66 98.78,-79.42 243.23,-63.7 322.64,35.07l648.67 807.78 648.69 -807.78z"/>
    <path class="fil1" d="M25667.32 11687.56c-127.05,0 -230.08,-103.03 -230.08,-230.08 0,-127.08 103.03,-230.09 230.08,-230.09l1159.48 0c67.43,0 128.9,-27.75 173.6,-72.45 44.7,-44.7 72.45,-106.19 72.45,-173.6 0,-67.41 -27.75,-128.88 -72.47,-173.58 -44.68,-44.72 -106.17,-72.48 -173.58,-72.48l-683.36 0c-194.44,0 -371.08,-79.39 -498.93,-207.27 -127.9,-127.88 -207.27,-304.49 -207.27,-498.95 0,-194.46 79.37,-371.07 207.25,-498.95 127.85,-127.88 304.49,-207.27 498.95,-207.27l888.8 0c127.05,0 230.08,103.03 230.08,230.08 0,127.05 -103.03,230.09 -230.08,230.09l-888.8 0c-67.41,0 -128.88,27.75 -173.58,72.45 -44.7,44.7 -72.45,106.19 -72.45,173.6 0,67.44 27.75,128.91 72.45,173.61 44.7,44.69 106.17,72.45 173.58,72.45l683.36 0c194.46,0 371.07,79.39 498.95,207.27 127.88,127.85 207.27,304.49 207.27,498.95 0,194.46 -79.39,371.07 -207.25,498.95 -127.87,127.9 -304.49,207.27 -498.97,207.27l-1159.48 0z"/>
    <path class="fil1" d="M21136.95 11687.56c-127.05,0 -230.08,-103.03 -230.08,-230.08 0,-127.08 103.03,-230.09 230.08,-230.09l1159.48 0c67.43,0 128.9,-27.75 173.6,-72.45 44.67,-44.7 72.45,-106.19 72.45,-173.6 0,-67.41 -27.78,-128.91 -72.48,-173.58 -44.67,-44.72 -106.16,-72.48 -173.57,-72.48l-683.36 0c-194.47,0 -371.08,-79.39 -498.96,-207.27 -127.87,-127.88 -207.24,-304.49 -207.24,-498.95 0,-194.46 79.37,-371.07 207.22,-498.95 127.88,-127.88 304.49,-207.27 498.98,-207.27l888.77 0c127.08,0 230.09,103.03 230.09,230.08 0,127.05 -103.01,230.09 -230.09,230.09l-888.77 0c-67.42,0 -128.91,27.75 -173.61,72.45 -44.7,44.7 -72.45,106.19 -72.45,173.6 0,67.44 27.75,128.91 72.48,173.61 44.69,44.69 106.16,72.45 173.58,72.45l683.36 0c194.46,0 371.07,79.39 498.95,207.27 127.85,127.85 207.27,304.49 207.27,498.95 0,194.46 -79.4,371.07 -207.27,498.95 -127.88,127.9 -304.49,207.27 -498.95,207.27l-1159.48 0z"/>
    <path class="fil1" d="M20144.19 11094.55c100.28,-77.94 244.72,-59.84 322.66,40.44 77.92,100.25 59.82,244.72 -40.43,322.66 -103.44,80.4 -221.31,144.6 -349.54,188.55 -123.07,42.14 -254.33,65.03 -390.13,65.03 -333.04,0 -634.55,-135 -852.78,-353.25 -218.25,-218.23 -353.24,-519.74 -353.24,-852.78 0,-332.99 134.99,-634.55 353.24,-852.78 218.23,-218.25 519.74,-353.25 852.78,-353.25 135.8,0 267.09,22.89 390.13,65.03 128.25,43.95 246.1,108.13 349.54,188.57 100.25,77.92 118.35,222.39 40.43,322.64 -77.94,100.25 -222.38,118.38 -322.66,40.44 -64.76,-50.36 -137.21,-90.1 -214.69,-116.65 -75.41,-25.82 -157.06,-39.86 -242.75,-39.86 -205.99,0 -392.46,83.48 -527.4,218.46 -134.98,134.94 -218.48,321.43 -218.48,527.4 0,205.99 83.5,392.46 218.48,527.4 134.94,134.98 321.41,218.46 527.4,218.46 85.69,0 167.34,-14.02 242.72,-39.86 77.49,-26.53 149.94,-66.29 214.72,-116.65zm-627.41 -364.2c-127.07,0 -230.08,-103.01 -230.08,-230.06 0,-127.08 103.01,-230.11 230.08,-230.11l768.52 0c127.08,0 230.09,103.03 230.09,230.11 0,127.05 -103.01,230.06 -230.09,230.06l-768.52 0z"/>
    <path class="fil1" d="M16345.86 11467.1c0,127.05 -103.03,230.09 -230.08,230.09 -127.08,0 -230.09,-103.04 -230.09,-230.09l0 -1937.84c0,-127.05 103.01,-230.09 230.09,-230.09 75.96,0 143.32,36.83 185.21,93.61l1275.94 1475.52 0 -1339.04c0,-127.05 103.04,-230.09 230.09,-230.09 127.05,0 230.08,103.04 230.08,230.09l0 1955.79 -0.7 0c-0.03,64.23 -26.9,128.13 -79.29,173.46 -95.79,82.87 -240.67,72.42 -323.55,-23.37l-1287.7 -1489.13 0 1321.09z"/>
    <path class="fil1" d="M15070.87 11094.55c100.25,-77.94 244.72,-59.84 322.66,40.44 77.94,100.25 59.82,244.72 -40.43,322.66 -103.44,80.4 -221.31,144.6 -349.57,188.55 -123.01,42.14 -254.3,65.03 -390.1,65.03 -333.04,0 -634.55,-135 -852.77,-353.25 -218.26,-218.23 -353.25,-519.74 -353.25,-852.78 0,-332.99 134.99,-634.55 353.25,-852.78 218.22,-218.25 519.73,-353.25 852.77,-353.25 135.8,0 267.09,22.89 390.13,65.03 128.28,43.95 246.1,108.13 349.54,188.57 100.25,77.92 118.37,222.39 40.43,322.64 -77.94,100.25 -222.41,118.38 -322.66,40.44 -64.78,-50.36 -137.2,-90.1 -214.69,-116.65 -75.41,-25.82 -157.06,-39.86 -242.75,-39.86 -205.99,0 -392.48,83.48 -527.43,218.46 -134.94,134.94 -218.45,321.43 -218.45,527.4 0,205.99 83.51,392.46 218.45,527.4 134.95,134.98 321.44,218.46 527.43,218.46 85.69,0 167.34,-14.02 242.72,-39.86 77.49,-26.53 149.94,-66.29 214.72,-116.65zm-627.43 -364.2c-127.05,0 -230.06,-103.01 -230.06,-230.06 0,-127.08 103.01,-230.11 230.06,-230.11l768.54 0c127.05,0 230.09,103.03 230.09,230.11 0,127.05 -103.04,230.06 -230.09,230.06l-768.54 0z"/>
    <path class="fil1" d="M13033.65 10502.74l0.03 2.46c0,333.04 -135.03,634.55 -353.25,852.78 -218.23,218.25 -519.79,353.25 -852.78,353.25 -333.05,0 -634.55,-135 -852.78,-353.25 -218.25,-218.23 -353.25,-519.74 -353.25,-852.78 0,-332.99 135,-634.55 353.25,-852.78 218.23,-218.25 519.73,-353.25 852.78,-353.25 135.8,0 267.09,22.89 390.12,65.03 128.26,43.95 246.11,108.13 349.54,188.57 100.26,77.92 118.38,222.39 40.44,322.64 -77.91,100.25 -222.39,118.38 -322.66,40.44 -64.76,-50.36 -137.21,-90.1 -214.7,-116.65 -75.38,-25.82 -157.06,-39.86 -242.74,-39.86 -205.99,0 -392.46,83.48 -527.41,218.46 -134.97,134.94 -218.45,321.43 -218.45,527.4 0,205.99 83.48,392.46 218.45,527.4 134.95,134.98 321.42,218.46 527.41,218.46 205.97,0 392.46,-83.48 527.4,-218.46 83.56,-83.53 147.33,-186.84 183.86,-302.25l-752.43 0c-127.05,0 -230.05,-103.01 -230.05,-230.06 0,-127.08 103,-230.11 230.05,-230.11l1017.11 0c127.05,0 230.09,103.03 230.09,230.11l-0.03 2.45z"/>
   </g>
   <path class="fil2" d="M12864.07 12973.63l-379.29 0 0 -115.73 379.29 0 0 115.73zm30.15 279.11l-573.79 0 0 -664.23 573.79 0 0 115.74 -458.06 0 0 432.77 458.06 0 0 115.72zm1125.89 -57.38c0,42.79 -14.6,64.19 -43.77,64.19 -21.4,0 -45.39,-13.28 -71.97,-39.87l-425.97 -427.92 0 460.98 -114.76 0 0 -606.85c0,-15.56 4.22,-29.01 12.66,-40.36 8.41,-11.35 20.42,-17.02 35.98,-17.02 21.4,0 43.43,11.35 66.12,34.04l425.97 426.94 0 -460.98 115.74 0 0 606.85zm1034.45 -221.73l-379.28 0 0 -115.73 379.28 0 0 115.73zm30.15 279.11l-573.79 0 0 -664.23 573.79 0 0 115.74 -458.05 0 0 432.77 458.05 0 0 115.72zm1241.61 0l-171.16 0 -185.74 -186.72 -249.95 0 0 -114.76 311.2 0c42.81,0 78.79,-9.4 107.96,-28.21 33.06,-22.03 49.59,-53.48 49.59,-94.33 0,-82.98 -52.51,-124.47 -157.55,-124.47l-379.28 0 0 548.49 -115.73 0 0 -664.23 476.54 0c85.58,0 154.64,18.48 207.15,55.44 60.29,42.14 90.44,104.06 90.44,185.74 0,55.76 -17.51,103.75 -52.51,143.94 -32.42,37.6 -76.51,63.87 -132.27,78.78l201.31 200.33zm1182.28 0l-422.07 0c-96.6,0 -176.51,-32.08 -239.72,-96.27 -63.21,-64.19 -94.82,-145.24 -94.82,-243.14 0,-97.25 31.28,-175.7 93.84,-235.35 62.57,-59.64 142.8,-89.47 240.7,-89.47l375.39 0 0 115.74 -375.39 0c-63.53,0 -115.88,20.41 -157.06,61.26 -41.16,40.84 -61.75,93.36 -61.75,157.54 0,63.55 20.59,115.1 61.75,154.64 41.18,39.55 93.53,59.33 157.06,59.33l306.35 0 0 -144.91 -315.1 0 0 -106.01 430.82 0 0 366.64zm573.49 0l-115.72 0 0 -664.23 115.72 0 0 664.23zm1344.7 0l-148.8 -0.97 -111.83 -185.75 -315.11 0 70.03 -114.76 176.02 0 -115.72 -191.59 -299.55 492.1 -148.8 0 360.82 -600.05c9.07,-15.55 21.71,-29.82 37.92,-42.79 19.46,-14.91 36.95,-22.36 52.52,-22.36 16.85,0 34.36,7.13 52.51,21.39 15.56,12.32 28.21,26.91 37.94,43.76l352.05 601.02zm1717.16 -205.2c0,62.89 -22.36,113.47 -67.1,151.72 -42.79,35.66 -96.28,53.48 -160.47,53.48l-506.68 0 0 -115.72 506.68 0c31.77,0 59.34,-7.14 82.68,-21.4 26.57,-17.51 39.87,-41.17 39.87,-71 0,-29.81 -13.62,-52.84 -40.85,-69.04 -22.69,-13.62 -49.93,-20.42 -81.7,-20.42l-313.14 0c-57.71,0 -106.02,-15.89 -144.91,-47.66 -41.5,-34.36 -62.25,-79.74 -62.25,-136.15 0,-55.76 20.75,-100.83 62.25,-135.18 38.89,-31.77 87.2,-47.66 144.91,-47.66l500.84 0 0 115.74 -500.84 0c-22.05,0 -40.85,6.15 -56.41,18.47 -15.56,12.32 -23.35,28.85 -23.35,49.59 0,21.4 7.79,37.94 23.35,49.6 15.56,11.68 34.36,17.51 56.41,17.51l313.14 0c64.19,0 117.68,18.48 160.47,55.44 44.74,38.89 67.1,89.8 67.1,152.68zm1273.7 -134.21c0,97.9 -31.44,178.95 -94.33,243.14 -62.89,64.19 -142.96,96.27 -240.21,96.27l-185.76 0c-96.61,0 -176.51,-32.08 -239.72,-96.27 -63.21,-64.19 -94.82,-145.24 -94.82,-243.14 0,-97.25 31.28,-175.7 93.84,-235.35 62.57,-59.64 142.8,-89.47 240.7,-89.47l185.76 0c98.54,0 178.95,29.83 241.18,89.47 62.24,59.65 93.36,138.1 93.36,235.35zm-114.76 9.72c0,-64.18 -20.58,-116.7 -61.75,-157.54 -41.17,-40.85 -93.84,-61.26 -158.03,-61.26l-185.76 0c-63.53,0 -115.88,20.41 -157.06,61.26 -41.16,40.84 -61.75,93.36 -61.75,157.54 0,63.55 20.59,115.1 61.75,154.64 41.18,39.55 93.53,59.33 157.06,59.33l185.76 0c64.19,0 116.86,-19.78 158.03,-59.33 41.17,-39.54 61.75,-91.09 61.75,-154.64zm1087.95 329.69l-572.82 0 0 -664.23 115.74 0 0 548.51 457.08 0 0 115.72zm1274.67 0l-148.8 -0.97 -111.83 -185.75 -315.11 0 70.03 -114.76 176.02 0 -115.72 -191.59 -299.54 492.1 -148.8 0 360.81 -600.05c9.08,-15.55 21.72,-29.82 37.92,-42.79 19.46,-14.91 36.96,-22.36 52.53,-22.36 16.84,0 34.35,7.13 52.51,21.39 15.55,12.32 28.21,26.91 37.93,43.76l352.05 601.02zm1168.67 0l-171.17 0 -185.74 -186.72 -249.95 0 0 -114.76 311.21 0c42.8,0 78.78,-9.4 107.95,-28.21 33.07,-22.03 49.6,-53.48 49.6,-94.33 0,-82.98 -52.51,-124.47 -157.55,-124.47l-379.29 0 0 548.49 -115.72 0 0 -664.23 476.54 0c85.57,0 154.63,18.48 207.14,55.44 60.3,42.14 90.45,104.06 90.45,185.74 0,55.76 -17.51,103.75 -52.52,143.94 -32.41,37.6 -76.51,63.87 -132.26,78.78l201.31 200.33z"/>
  </g>
 </g>
</svg>
